<?xml version="1.0" standalone="no"?>
<!DOCTYPE svg PUBLIC "-//W3C//DTD SVG 20010904//EN" "http://www.w3.org/TR/2001/REC-SVG-20010904/DTD/svg10.dtd">
<!-- Created using Krita: http://krita.org -->
<svg xmlns="http://www.w3.org/2000/svg" 
    xmlns:xlink="http://www.w3.org/1999/xlink"
    xmlns:krita="http://krita.org/namespaces/svg/krita"
    xmlns:sodipodi="http://sodipodi.sourceforge.net/DTD/sodipodi-0.dtd"
    width="322.56pt"
    height="368.64pt"
    viewBox="0 0 322.56 368.64">
<defs/>
<path id="shape0" transform="translate(95.0950318471338, 167.883821656051)" fill="none" stroke="#000000" stroke-width="37.9728" stroke-linecap="square" stroke-linejoin="bevel" d="M0 109.77C0 143.819 47.5756 139.679 61.0487 126.206C70.1591 117.096 67.5057 20.1498 67.5057 0"/><path id="shape1" transform="translate(207.213248407643, 181.771056212617)" fill="none" stroke="#000000" stroke-width="54.0648" stroke-linecap="square" stroke-linejoin="bevel" d="M72.2018 20.7461C72.2018 1.27801 18.1091 -10.776 5.87006 13.7021C-13.7861 53.0143 98.5303 57.9011 66.3317 122.298C63.8709 127.22 54.4096 122.683 50.4825 124.646C19.9276 139.924 12.5774 112.569 1.17401 101.166C0.953887 100.946 0 94.5041 0 96.47"/><path id="shape2" transform="matrix(0.72 0 0 0.72 0 23.04)" fill="#f7e018" d="M400 0L48 0C21.5 0 0 21.5 0 48L0 400C0 426.5 21.5 448 48 448L400 448C426.5 448 448 426.5 448 400L448 48C448 21.5 426.5 0 400 0ZM243.8 349.4C243.8 393 218.2 412.9 180.9 412.9C147.2 412.9 127.7 395.5 117.7 374.4L152 353.7C158.6 365.4 164.6 375.3 179.1 375.3C192.9 375.3 201.7 369.9 201.7 348.8L201.7 205.7L243.8 205.7ZM343.4 412.9C304.3 412.9 279 394.3 266.7 369.9L301 350.1C310 364.8 321.8 375.7 342.5 375.7C359.9 375.7 371.1 367 371.1 354.9C371.1 340.5 359.7 335.4 340.4 326.9L329.9 322.4C299.5 309.5 279.4 293.2 279.4 258.9C279.4 227.3 303.5 203.3 341 203.3C367.8 203.3 387 212.6 400.8 237L368 258C360.8 245.1 353 240 340.9 240C328.6 240 320.8 247.8 320.8 258C320.8 270.6 328.6 275.7 346.7 283.6L357.2 288.1C393 303.4 413.1 319.1 413.1 354.3C413.1 392.1 383.3 412.9 343.4 412.9Z"/>
</svg>
